<?xml version="1.0" standalone="no"?>
<!DOCTYPE svg PUBLIC "-//W3C//DTD SVG 20010904//EN"
 "http://www.w3.org/TR/2001/REC-SVG-20010904/DTD/svg10.dtd">
<svg version="1.0" xmlns="http://www.w3.org/2000/svg"
 width="700.000000pt" height="700.000000pt" viewBox="0 0 700.000000 700.000000"
 preserveAspectRatio="xMidYMid meet">
<metadata>
Created by potrace 1.14, written by Peter Selinger 2001-2017
</metadata>
<g transform="translate(0.000000,700.000000) scale(0.100000,-0.100000)"
fill="#000000" stroke="none">
<path d="M3158 6966 c-21 -8 -50 -21 -64 -31 -32 -21 -102 -167 -169 -355 -27
-74 -52 -139 -55 -143 -4 -5 -40 -15 -80 -23 l-73 -15 -36 33 c-139 131 -225
206 -288 255 -95 73 -126 75 -263 19 -118 -47 -345 -164 -376 -192 -41 -39
-47 -90 -40 -329 4 -121 8 -230 9 -242 2 -16 -14 -33 -56 -65 l-58 -44 -162
54 c-302 99 -363 108 -427 62 -39 -27 -181 -187 -271 -302 -82 -107 -90 -137
-58 -229 22 -64 107 -239 172 -354 l34 -59 -36 -67 -36 -68 -85 -6 c-103 -8
-351 -42 -401 -55 -95 -26 -121 -79 -223 -452 -40 -147 -38 -169 21 -231 42
-43 227 -200 312 -264 l54 -41 -2 -68 c-1 -38 -4 -76 -7 -85 -2 -9 -46 -38
-97 -66 -163 -88 -353 -211 -368 -239 -19 -36 -17 -143 4 -284 42 -286 58
-334 120 -363 50 -23 271 -93 387 -122 l105 -26 23 -75 23 -75 -62 -77 c-34
-42 -100 -135 -147 -206 -84 -125 -87 -131 -86 -185 1 -50 8 -69 69 -176 83
-148 178 -287 216 -319 55 -46 152 -44 448 10 74 14 137 21 141 17 4 -4 28
-31 54 -60 l47 -51 -25 -94 c-30 -109 -67 -332 -68 -401 0 -36 6 -55 27 -83
33 -43 173 -149 326 -246 90 -57 119 -70 152 -70 56 -1 134 39 328 168 l156
103 59 -23 c32 -13 66 -26 74 -29 11 -3 20 -30 28 -80 7 -41 33 -155 57 -254
42 -164 48 -181 79 -210 41 -38 101 -57 261 -84 66 -10 150 -26 188 -35 76
-18 140 -13 174 14 27 22 161 209 238 334 65 105 69 108 177 108 47 0 48 -1
90 -62 66 -99 204 -283 244 -327 48 -54 82 -62 180 -44 253 46 438 99 471 135
46 51 59 105 119 511 5 35 11 40 76 72 l71 35 88 -55 c49 -30 148 -87 221
-126 162 -87 199 -93 275 -39 134 94 275 204 330 257 89 86 91 98 42 296 -22
89 -51 199 -65 245 l-25 82 48 58 c26 31 48 58 49 60 1 2 71 -7 155 -19 204
-28 374 -31 412 -6 39 26 109 136 206 327 100 195 103 213 45 298 -36 53 -195
254 -261 331 l-29 34 21 76 21 75 139 41 c178 52 327 110 365 142 35 29 43 57
67 223 24 169 24 376 1 410 -22 31 -140 102 -331 200 -81 41 -149 82 -151 90
-3 8 -8 45 -11 81 l-7 65 89 74 c48 41 136 122 194 180 86 85 108 112 112 140
6 41 -37 190 -112 390 -62 162 -86 192 -169 209 -80 16 -225 31 -303 31 -36 0
-93 3 -125 6 l-59 7 -37 62 -37 63 75 168 c99 220 127 305 119 354 -8 45 -65
117 -230 288 -128 133 -169 164 -218 164 -37 0 -256 -75 -402 -137 l-100 -43
-35 27 c-19 15 -47 35 -62 44 l-28 17 0 213 c0 234 -9 313 -40 356 -12 18 -56
47 -113 75 -126 62 -385 158 -425 158 -50 0 -100 -39 -277 -214 l-160 -159
-75 13 -74 14 -36 85 c-66 153 -173 374 -193 397 -11 12 -37 26 -56 32 -56 15
-478 12 -523 -4z m564 -263 c42 -87 92 -201 113 -253 21 -52 38 -96 40 -98 1
-1 65 -14 142 -28 l141 -26 190 191 c105 105 198 191 208 191 21 0 309 -113
386 -151 l56 -28 7 -87 c4 -47 6 -174 3 -281 l-4 -194 80 -53 c45 -29 98 -67
119 -84 l39 -31 46 23 c76 38 290 122 386 152 l90 28 105 -110 c58 -61 133
-140 165 -177 l59 -68 -38 -97 c-21 -53 -72 -168 -113 -254 l-75 -158 29 -42
c16 -24 49 -79 74 -123 l46 -80 199 -6 c110 -3 223 -9 250 -13 109 -16 104
-13 136 -83 36 -81 129 -355 129 -381 0 -23 -233 -242 -382 -358 l-27 -21 16
-59 c8 -32 17 -96 18 -142 1 -45 4 -84 6 -86 2 -2 58 -29 124 -60 66 -31 177
-89 247 -129 l126 -71 -4 -71 c-10 -149 -26 -332 -32 -370 -7 -36 -11 -41 -57
-58 -99 -38 -332 -115 -403 -133 l-73 -19 -15 -55 c-8 -30 -27 -94 -42 -141
l-27 -85 83 -95 c93 -104 262 -324 262 -340 0 -16 -78 -167 -153 -296 l-71
-123 -58 0 c-71 0 -316 25 -422 43 l-77 13 -49 -60 c-27 -34 -69 -84 -94 -111
l-45 -50 44 -140 c24 -77 55 -195 70 -263 l28 -123 -29 -31 c-64 -67 -329
-268 -354 -268 -27 0 -232 113 -387 212 l-93 60 -102 -50 c-57 -27 -118 -55
-135 -62 -30 -11 -33 -16 -33 -54 0 -58 -36 -292 -63 -410 l-22 -98 -60 -19
c-63 -20 -373 -89 -398 -89 -17 0 -165 190 -267 343 l-68 102 -144 -3 c-120
-3 -145 -6 -156 -20 -7 -9 -50 -77 -95 -150 -45 -73 -109 -170 -143 -215 l-61
-83 -154 26 c-214 37 -308 60 -318 79 -21 39 -103 406 -113 504 -3 26 -13 32
-140 82 l-136 55 -114 -80 c-140 -98 -325 -210 -348 -210 -20 0 -254 154 -342
224 -55 44 -57 47 -51 83 13 93 65 346 87 425 l24 87 -38 30 c-20 16 -65 63
-100 104 -60 72 -64 74 -94 66 -62 -17 -303 -58 -404 -69 -76 -8 -107 -8 -117
0 -35 29 -245 375 -245 404 0 19 147 231 238 344 l83 102 -29 78 c-17 42 -38
105 -47 139 l-17 62 -57 11 c-168 34 -470 123 -482 142 -12 19 -75 468 -66
473 1 1 56 35 122 77 66 41 174 104 241 139 l121 63 7 133 c3 73 8 138 11 145
2 8 -38 44 -94 85 -117 87 -320 259 -327 278 -7 17 55 255 96 368 18 48 39 91
49 96 26 14 254 41 402 48 l136 6 46 91 c26 50 57 109 71 131 l24 40 -49 85
c-61 103 -136 251 -174 342 l-28 68 55 72 c31 40 100 122 153 182 l98 108 39
-6 c54 -9 305 -88 409 -129 l87 -34 73 59 c41 32 93 71 117 86 l43 27 -5 50
c-16 134 -26 291 -26 396 l0 115 128 66 c70 36 169 82 219 103 l93 38 71 -59
c84 -68 272 -243 309 -287 l25 -29 55 16 c30 9 89 23 130 32 41 8 82 17 91 20
8 2 23 30 33 62 41 130 161 428 183 452 10 10 118 17 294 19 l186 1 75 -157z"/>
<path d="M3305 5869 c-336 -31 -681 -123 -941 -250 -224 -109 -500 -311 -664
-486 -185 -197 -351 -435 -460 -658 -102 -209 -157 -383 -206 -650 -26 -142
-26 -511 0 -680 85 -558 294 -968 687 -1350 208 -202 474 -386 706 -489 615
-273 1356 -299 2013 -71 128 44 374 162 490 235 539 336 896 797 1036 1335 69
267 79 347 79 680 0 330 0 332 -62 372 -26 17 -113 18 -1580 18 l-1553 0 -37
-38 -38 -37 0 -525 0 -524 -43 42 c-116 113 -216 326 -243 516 -17 119 -7 344
20 446 27 102 105 261 169 346 138 182 376 338 589 385 99 22 324 29 436 14
227 -31 431 -136 607 -314 63 -64 107 -100 130 -107 23 -7 268 -9 727 -7 l692
3 30 29 c30 29 48 80 42 121 -10 72 -182 396 -316 596 -123 183 -221 302 -357
435 -344 336 -719 513 -1263 595 -152 23 -532 33 -690 18z m702 -148 c744
-113 1247 -487 1651 -1226 79 -144 145 -285 134 -285 -4 0 -16 7 -26 15 -17
13 -111 15 -647 15 -571 0 -627 -1 -633 -16 -5 -13 -29 5 -109 83 -56 54 -132
118 -169 142 -41 26 -68 51 -68 61 0 25 -175 104 -301 136 -141 35 -376 44
-528 20 -266 -42 -488 -159 -679 -359 -185 -194 -283 -409 -312 -679 -5 -51
-10 -96 -10 -100 0 -5 8 -9 18 -9 16 -1 16 -2 0 -6 -21 -5 -24 -23 -4 -23 10
0 16 -22 21 -82 24 -300 118 -521 308 -724 246 -264 609 -395 1007 -364 287
22 510 115 697 293 71 68 163 179 163 198 0 5 -327 9 -789 9 -689 0 -790 -2
-801 -15 -7 -8 -16 -15 -21 -15 -5 0 -9 211 -9 480 l0 480 1508 0 1507 0 4
-150 c3 -133 1 -150 -13 -150 -9 0 -16 -4 -16 -10 0 -5 7 -10 15 -10 8 0 15
-7 15 -15 0 -8 -6 -15 -14 -15 -11 0 -16 -22 -21 -87 -29 -386 -140 -728 -328
-1016 -283 -433 -794 -798 -1327 -948 -449 -127 -989 -128 -1425 -3 -128 37
-306 105 -420 161 -48 23 -63 27 -46 13 13 -11 20 -20 17 -20 -31 0 -269 153
-383 246 -95 77 -283 265 -355 353 -243 301 -395 654 -455 1057 -26 178 -24
538 5 694 68 371 226 710 481 1028 406 509 953 795 1648 862 152 15 561 4 710
-19z m168 -3097 c-47 -38 -222 -121 -304 -143 -157 -43 -389 -49 -566 -16
-103 19 -234 70 -327 126 -46 28 -86 53 -90 57 -4 4 291 6 655 4 l662 -3 -30
-25z"/>
</g>
</svg>
